# xmcd
#
# Track frame offsets:
#   150
#   17727
#   31781
#   54713
#   76260
#   93881
#   112180
#   127618
#   149270
#   175096
#   190426
#   218662
#   242468
#   266915
#   284453
#   308956
#   323800
#   336370
#
# Disc length: 4682 seconds
#
# Revision: 0
# Processed by: cddbd v1.5.2PL0 Copyright (c) Steve Scherf et al.
# Submitted via: uFREEDB ActiveX Control 1.5
#
DISCID=fe124812
DTITLE=VARIOS - PEROLAS NATIVA 6
DYEAR=1900
DGENRE=Country
TTITLE0=DOMINDGO DE INVERNO
TTITLE1=MILONGA
TTITLE2=PETALAS DE IPE
TTITLE3=SINCERIDADE
TTITLE4=NA LUZ DO CANDEEIRO
TTITLE5=PAI
TTITLE6=PRA FALAR DE AMOR
TTITLE7=PAI AMIGO DE VERDADE
TTITLE8=CAMINHONEIRO GAUCHO
TTITLE9=NAO DEIXE APAGAR A CHAMA
TTITLE10=SERRA
TTITLE11=CATRE VAZIO
TTITLE12=MAE AMIGA
TTITLE13=COLONO POR EXELENCIA
TTITLE14=NA ESPUMA DO MATE
TTITLE15=PRIMAVERA
TTITLE16=O BEIJO DO GURI
TTITLE17=RECUERDOS
EXTD=
EXTT0=
EXTT1=
EXTT2=
EXTT3=
EXTT4=
EXTT5=
EXTT6=
EXTT7=
EXTT8=
EXTT9=
EXTT10=
EXTT11=
EXTT12=
EXTT13=
EXTT14=
EXTT15=
EXTT16=
EXTT17=
PLAYORDER=
